<?xml version="1.0" encoding="UTF-8"?>
<svg id="Capa_1" xmlns="http://www.w3.org/2000/svg" version="1.1" viewBox="0 0 500 200">
  <!-- Generator: Adobe Illustrator 30.1.0, SVG Export Plug-In . SVG Version: 2.1.1 Build 136)  -->
  <rect x="9.08" y="101.39" width="55.71" height="55.71"/>
  <path d="M64.78,42.9v55.71H9.08c0-30.77,24.94-55.71,55.71-55.71Z"/>
  <path d="M123.27,42.9v55.71h-2.8c-17.07-.85-32.13-9.38-41.76-22.21-6.99-9.31-11.14-20.88-11.14-33.43v-.07h55.71Z"/>
  <path d="M123.27,101.46s0,.09,0,.14c-.07,15.32-12.51,27.72-27.85,27.72s-27.85-12.47-27.85-27.85v-.07h52.9c.93.05,1.86.07,2.8.07Z"/>
  <rect x="254.18" y="42.9" width="55.71" height="55.71"/>
  <rect x="254.18" y="101.39" width="55.71" height="55.71"/>
  <path d="M368.37,101.39c0,30.77-24.94,55.71-55.71,55.71v-55.71h55.71Z"/>
  <path d="M368.37,98.61h-55.71v-55.71c30.77,0,55.71,24.94,55.71,55.71Z"/>
  <path d="M187.33,101.39c0,20.62-11.2,38.62-27.85,48.25-8.19,4.74-17.71,7.45-27.85,7.45v-55.71h55.71Z"/>
  <path d="M245.82,98.61h-55.71v-55.71c10.15,0,19.66,2.71,27.85,7.45,16.65,9.63,27.85,27.63,27.85,48.25Z"/>
  <path d="M187.33,42.9v55.71h-55.71c0-20.62,11.2-38.62,27.85-48.25,8.19-4.74,17.71-7.45,27.85-7.45Z"/>
  <path d="M245.82,101.39v55.71c-10.15,0-19.66-2.71-27.85-7.45-16.65-9.63-27.85-27.63-27.85-48.25h55.71Z"/>
  <path d="M435.22,98.61c0-20.62,11.2-38.62,27.85-48.25,8.19-4.74,17.71-7.45,27.85-7.45v55.71h-55.71Z"/>
  <path d="M376.73,101.39h55.71v55.71c-10.15,0-19.66-2.71-27.85-7.45-16.65-9.63-27.85-27.63-27.85-48.25Z"/>
  <path d="M435.22,157.1v-55.71h55.71c0,20.62-11.2,38.62-27.85,48.25-8.19,4.74-17.71,7.45-27.85,7.45Z"/>
  <path d="M376.73,98.61v-55.71c10.15,0,19.66,2.71,27.85,7.45,16.65,9.63,27.85,27.63,27.85,48.25h-55.71Z"/>
</svg>